P3
16 16 255
0 0 0 0 0 0 0 0 0 0 0 0 0 0 0 0 0 0 0 0 0 0 0 0 0 0 0 0 0 0 0 0 0 0 0 0 0 0 0 0 0 0 0 0 0 0 0 0 
0 0 0 0 0 0 0 0 0 0 0 0 0 0 0 0 0 0 0 0 0 0 0 0 0 0 0 0 0 0 0 0 0 0 0 0 0 0 0 0 0 0 0 0 0 0 0 0 
0 0 0 0 0 0 0 0 0 0 0 0 0 0 0 0 0 0 0 0 0 0 0 0 0 0 0 0 0 0 0 0 0 0 0 0 0 0 0 0 0 0 0 0 0 0 0 0 
0 0 0 0 0 0 0 0 0 35 22 99 35 22 99 35 22 99 35 22 99 35 22 99 35 22 99 35 22 99 35 22 99 0 0 0 0 0 0 0 0 0 0 0 0 0 0 0 
0 0 0 0 0 0 0 0 0 35 22 99 35 22 99 35 22 99 35 22 99 35 22 99 35 22 99 35 22 99 35 22 99 35 22 99 0 0 0 0 0 0 0 0 0 0 0 0 
0 0 0 0 0 0 0 0 0 35 22 99 35 22 99 35 22 99 35 22 99 35 22 99 35 22 99 35 22 99 35 22 99 35 22 99 35 22 99 0 0 0 0 0 0 0 0 0 
0 0 0 0 0 0 0 0 0 35 22 99 35 22 99 35 22 99 35 22 99 35 22 99 35 22 99 35 22 99 35 22 99 35 22 99 35 22 99 0 0 0 0 0 0 0 0 0 
0 0 0 0 0 0 0 0 0 35 22 99 35 22 99 35 22 99 35 22 99 35 22 99 35 22 99 35 22 99 35 22 99 35 22 99 35 22 99 0 0 0 0 0 0 0 0 0 
0 0 0 0 0 0 0 0 0 35 22 99 35 22 99 35 22 99 35 22 99 35 22 99 35 22 99 35 22 99 35 22 99 35 22 99 35 22 99 0 0 0 0 0 0 0 0 0 
0 0 0 0 0 0 0 0 0 35 22 99 35 22 99 35 22 99 35 22 99 35 22 99 35 22 99 35 22 99 35 22 99 35 22 99 35 22 99 0 0 0 0 0 0 0 0 0 
0 0 0 0 0 0 0 0 0 35 22 99 35 22 99 35 22 99 35 22 99 35 22 99 35 22 99 35 22 99 35 22 99 35 22 99 35 22 99 0 0 0 0 0 0 0 0 0 
0 0 0 0 0 0 0 0 0 0 0 0 35 22 99 35 22 99 35 22 99 35 22 99 35 22 99 35 22 99 35 22 99 35 22 99 35 22 99 0 0 0 0 0 0 0 0 0 
0 0 0 0 0 0 0 0 0 0 0 0 0 0 0 35 22 99 35 22 99 35 22 99 35 22 99 35 22 99 35 22 99 35 22 99 35 22 99 0 0 0 0 0 0 0 0 0 
0 0 0 0 0 0 0 0 0 0 0 0 0 0 0 0 0 0 0 0 0 0 0 0 0 0 0 0 0 0 0 0 0 0 0 0 0 0 0 0 0 0 0 0 0 0 0 0 
0 0 0 0 0 0 0 0 0 0 0 0 0 0 0 0 0 0 0 0 0 0 0 0 0 0 0 0 0 0 0 0 0 0 0 0 0 0 0 0 0 0 0 0 0 0 0 0 
0 0 0 0 0 0 0 0 0 0 0 0 0 0 0 0 0 0 0 0 0 0 0 0 0 0 0 0 0 0 0 0 0 0 0 0 0 0 0 0 0 0 0 0 0 0 0 0 
